<?xml version="1.0" encoding="UTF-8" standalone="no"?>
<!-- Created with Inkscape (http://www.inkscape.org/) -->

<svg
   width="210mm"
   height="297mm"
   viewBox="0 0 210 297"
   version="1.1"
   id="svg5"
   xml:space="preserve"
   inkscape:version="1.2.2 (b0a84865, 2022-12-01)"
   sodipodi:docname="SC24-Logo.svg"
   xmlns:inkscape="http://www.inkscape.org/namespaces/inkscape"
   xmlns:sodipodi="http://sodipodi.sourceforge.net/DTD/sodipodi-0.dtd"
   xmlns:xlink="http://www.w3.org/1999/xlink"
   xmlns="http://www.w3.org/2000/svg"
   xmlns:svg="http://www.w3.org/2000/svg"><sodipodi:namedview
     id="namedview7"
     pagecolor="#ffffff"
     bordercolor="#000000"
     borderopacity="0.25"
     inkscape:showpageshadow="2"
     inkscape:pageopacity="0.0"
     inkscape:pagecheckerboard="0"
     inkscape:deskcolor="#d1d1d1"
     inkscape:document-units="mm"
     showgrid="false"
     inkscape:lockguides="true"
     inkscape:zoom="1.6655841"
     inkscape:cx="372.24179"
     inkscape:cy="638.51475"
     inkscape:window-width="1728"
     inkscape:window-height="1051"
     inkscape:window-x="0"
     inkscape:window-y="38"
     inkscape:window-maximized="0"
     inkscape:current-layer="layer1" /><defs
     id="defs2"><inkscape:path-effect
       effect="powerclip"
       id="path-effect4379"
       is_visible="true"
       lpeversion="1"
       inverse="true"
       flatten="false"
       hide_clip="false"
       message="Use fill-rule evenodd on &lt;b&gt;fill and stroke&lt;/b&gt; dialog if no flatten result after convert clip to paths." /><inkscape:path-effect
       effect="powerclip"
       id="path-effect4375"
       is_visible="true"
       lpeversion="1"
       inverse="true"
       flatten="false"
       hide_clip="false"
       message="Use fill-rule evenodd on &lt;b&gt;fill and stroke&lt;/b&gt; dialog if no flatten result after convert clip to paths." /><inkscape:path-effect
       effect="powerclip"
       id="path-effect4371"
       is_visible="true"
       lpeversion="1"
       inverse="true"
       flatten="false"
       hide_clip="false"
       message="Use fill-rule evenodd on &lt;b&gt;fill and stroke&lt;/b&gt; dialog if no flatten result after convert clip to paths." /><clipPath
       clipPathUnits="userSpaceOnUse"
       id="clipPath433"><ellipse
         style="fill:#ffffff;stroke-width:0.881944;stroke-linejoin:bevel"
         id="ellipse435"
         cx="146.1994"
         cy="114.54264"
         rx="34.103313"
         ry="28.691267" /></clipPath><clipPath
       clipPathUnits="userSpaceOnUse"
       id="clipPath491"><rect
         style="fill:#ffffff;stroke-width:0.881944;stroke-linejoin:bevel"
         id="rect493"
         width="82.589325"
         height="55.306671"
         x="21.351637"
         y="145.45802" /></clipPath><clipPath
       clipPathUnits="userSpaceOnUse"
       id="clipPath491-6"><rect
         style="fill:#ffffff;stroke-width:0.881944;stroke-linejoin:bevel"
         id="rect493-9"
         width="82.589325"
         height="55.306671"
         x="21.351637"
         y="145.45802" /></clipPath><clipPath
       clipPathUnits="userSpaceOnUse"
       id="clipPath433-1"><ellipse
         style="fill:#ffffff;stroke-width:0.881944;stroke-linejoin:bevel"
         id="ellipse435-9"
         cx="146.1994"
         cy="114.54264"
         rx="34.103313"
         ry="28.691267" /></clipPath><clipPath
       clipPathUnits="userSpaceOnUse"
       id="clipPath4197"><path
         style="fill:#ffffff;fill-opacity:1;stroke:none;stroke-width:0;stroke-linejoin:bevel;stroke-dasharray:none;stroke-opacity:0.482353"
         d="m 132.4815,236.68669 v -2.52068 h -5.26503 c -4.97045,0 -5.25695,-0.0145 -5.1207,-0.25948 0.0794,-0.14272 0.28772,-0.5931 0.46297,-1.00086 0.93132,-2.1669 0.97395,-2.26436 1.60993,-3.68016 0.24983,-0.55616 0.45465,-1.05659 0.45515,-1.11206 5.3e-4,-0.0555 0.1008,-0.29239 0.22289,-0.52648 0.12208,-0.23409 0.71545,-1.56857 1.31858,-2.96551 1.08632,-2.51604 1.34239,-3.10027 2.47804,-5.65367 0.18136,-0.40775 0.51463,-1.17508 0.7406,-1.70516 l 0.41086,-0.96379 2.68485,-0.0404 c 2.52984,-0.0381 2.67693,-0.0253 2.54762,0.22241 -0.23374,0.44771 -0.91969,1.96911 -1.65611,3.67319 -0.64076,1.4827 -1.08847,2.49347 -1.7362,3.91964 -0.84527,1.86114 -2.11896,4.82233 -2.11896,4.92637 0,0.0685 0.66724,0.12464 1.48276,0.12464 h 1.48275 v -2.59481 -2.59482 h 2.52068 2.52068 v 2.59482 2.59481 h 1.48275 1.48275 v 2.52068 2.52068 h -1.48275 -1.48275 v 2.52068 2.52068 h -2.52068 -2.52068 z"
         id="path4199" /></clipPath><clipPath
       clipPathUnits="userSpaceOnUse"
       id="clipPath4359"><path
         style="display:block;opacity:1;fill:#ffffff;fill-opacity:1;stroke:none;stroke-width:0;stroke-linejoin:bevel;stroke-dasharray:none;stroke-opacity:0.482353"
         d="m 152.94594,184.82512 v -2.52068 h -5.26503 c -4.97045,0 -5.25695,-0.0145 -5.1207,-0.25948 0.0794,-0.14272 0.28772,-0.5931 0.46297,-1.00086 0.93132,-2.1669 0.97395,-2.26436 1.60993,-3.68016 0.24983,-0.55616 0.45465,-1.05659 0.45515,-1.11206 5.3e-4,-0.0555 0.1008,-0.29239 0.22289,-0.52648 0.12208,-0.23409 0.71545,-1.56857 1.31858,-2.96551 1.08632,-2.51604 1.34239,-3.10027 2.47804,-5.65367 0.18136,-0.40775 0.51463,-1.17508 0.7406,-1.70516 l 0.41086,-0.96379 2.68485,-0.0404 c 2.52984,-0.0381 2.67693,-0.0253 2.54762,0.22241 -0.23374,0.44771 -0.91969,1.96911 -1.65611,3.67319 -0.64076,1.4827 -1.08847,2.49347 -1.7362,3.91964 -0.84527,1.86114 -2.11896,4.82233 -2.11896,4.92637 0,0.0685 0.66724,0.12464 1.48276,0.12464 h 1.48275 v -2.59481 -2.59482 h 2.52068 2.52068 v 2.59482 2.59481 h 1.48275 1.48275 v 2.52068 2.52068 h -1.48275 -1.48275 v 2.52068 2.52068 h -2.52068 -2.52068 z"
         id="path4361" /></clipPath><clipPath
       clipPathUnits="userSpaceOnUse"
       id="clipPath4363"><path
         style="display:block;opacity:1;fill:#ffffff;fill-opacity:1;stroke:none;stroke-width:0;stroke-linejoin:bevel;stroke-dasharray:none;stroke-opacity:0.482353"
         d="m 152.94594,184.82512 v -2.52068 h -5.26503 c -4.97045,0 -5.25695,-0.0145 -5.1207,-0.25948 0.0794,-0.14272 0.28772,-0.5931 0.46297,-1.00086 0.93132,-2.1669 0.97395,-2.26436 1.60993,-3.68016 0.24983,-0.55616 0.45465,-1.05659 0.45515,-1.11206 5.3e-4,-0.0555 0.1008,-0.29239 0.22289,-0.52648 0.12208,-0.23409 0.71545,-1.56857 1.31858,-2.96551 1.08632,-2.51604 1.34239,-3.10027 2.47804,-5.65367 0.18136,-0.40775 0.51463,-1.17508 0.7406,-1.70516 l 0.41086,-0.96379 2.68485,-0.0404 c 2.52984,-0.0381 2.67693,-0.0253 2.54762,0.22241 -0.23374,0.44771 -0.91969,1.96911 -1.65611,3.67319 -0.64076,1.4827 -1.08847,2.49347 -1.7362,3.91964 -0.84527,1.86114 -2.11896,4.82233 -2.11896,4.92637 0,0.0685 0.66724,0.12464 1.48276,0.12464 h 1.48275 v -2.59481 -2.59482 h 2.52068 2.52068 v 2.59482 2.59481 h 1.48275 1.48275 v 2.52068 2.52068 h -1.48275 -1.48275 v 2.52068 2.52068 h -2.52068 -2.52068 z"
         id="path4365" /></clipPath><clipPath
       clipPathUnits="userSpaceOnUse"
       id="clipPath4367"><path
         style="display:block;opacity:1;fill:#ffffff;fill-opacity:1;stroke:none;stroke-width:0;stroke-linejoin:bevel;stroke-dasharray:none;stroke-opacity:0.482353"
         d="m 152.94594,184.82512 v -2.52068 h -5.26503 c -4.97045,0 -5.25695,-0.0145 -5.1207,-0.25948 0.0794,-0.14272 0.28772,-0.5931 0.46297,-1.00086 0.93132,-2.1669 0.97395,-2.26436 1.60993,-3.68016 0.24983,-0.55616 0.45465,-1.05659 0.45515,-1.11206 5.3e-4,-0.0555 0.1008,-0.29239 0.22289,-0.52648 0.12208,-0.23409 0.71545,-1.56857 1.31858,-2.96551 1.08632,-2.51604 1.34239,-3.10027 2.47804,-5.65367 0.18136,-0.40775 0.51463,-1.17508 0.7406,-1.70516 l 0.41086,-0.96379 2.68485,-0.0404 c 2.52984,-0.0381 2.67693,-0.0253 2.54762,0.22241 -0.23374,0.44771 -0.91969,1.96911 -1.65611,3.67319 -0.64076,1.4827 -1.08847,2.49347 -1.7362,3.91964 -0.84527,1.86114 -2.11896,4.82233 -2.11896,4.92637 0,0.0685 0.66724,0.12464 1.48276,0.12464 h 1.48275 v -2.59481 -2.59482 h 2.52068 2.52068 v 2.59482 2.59481 h 1.48275 1.48275 v 2.52068 2.52068 h -1.48275 -1.48275 v 2.52068 2.52068 h -2.52068 -2.52068 z"
         id="path4369" /></clipPath><clipPath
       clipPathUnits="userSpaceOnUse"
       id="clipPath4607"><rect
         style="opacity:1;fill:#ffffff;fill-opacity:1;stroke:none;stroke-width:0;stroke-linejoin:bevel;stroke-dasharray:none;stroke-opacity:1"
         id="rect4609"
         width="30.658663"
         height="17.47385"
         x="62.274624"
         y="171.63571" /></clipPath></defs><g
     inkscape:label="Layer 1"
     inkscape:groupmode="layer"
     id="layer1"><rect
       style="opacity:1;fill:#808080;fill-opacity:1;stroke:none;stroke-width:0;stroke-linejoin:bevel;stroke-dasharray:none;stroke-opacity:1"
       id="rect4794"
       width="140.90277"
       height="62.429298"
       x="27.799305"
       y="151.38707" /><image
       width="74.877083"
       height="100.89445"
       preserveAspectRatio="none"
       style="image-rendering:optimizeQuality"
       xlink:href="images/image236.png"
       id="image236"
       x="24.041201"
       y="86.973351"
       clip-path="url(#clipPath491)"
       transform="translate(61.08941,-45.632466)" /><image
       width="74.877083"
       height="100.89445"
       preserveAspectRatio="none"
       style="image-rendering:optimizeQuality"
       xlink:href="images/image236-4.png"
       id="image236-4"
       x="109.30141"
       y="85.129349"
       clip-path="url(#clipPath433)"
       transform="translate(-89.706538,6.4878033)"
       inkscape:export-filename="SC24-Logo-BlackLetters.png"
       inkscape:export-xdpi="96"
       inkscape:export-ydpi="96" /><path
       style="fill:#ffffff;fill-opacity:1;stroke:#282120;stroke-width:1.86803;stroke-linejoin:bevel;stroke-opacity:0.482353"
       d=""
       id="path3715"
       transform="scale(0.26458333)" /><path
       style="fill:#ffffff;fill-opacity:1;stroke:#282120;stroke-width:1.86803;stroke-linejoin:bevel;stroke-opacity:0.482353"
       d=""
       id="path3723"
       transform="scale(0.26458333)" /><path
       style="fill:#ffffff;fill-opacity:1;stroke:#282120;stroke-width:1.86803;stroke-linejoin:bevel;stroke-opacity:0.482353"
       d=""
       id="path3725"
       transform="scale(0.26458333)" /><g
       id="g4683"
       inkscape:export-filename="SC24-Logo-WhiteLetters.png"
       inkscape:export-xdpi="96"
       inkscape:export-ydpi="96"><image
         width="74.877083"
         height="100.89445"
         preserveAspectRatio="none"
         style="fill:#ffffff;fill-opacity:1;stroke:#282120;stroke-opacity:0.482353;image-rendering:auto"
         xlink:href="images/image236.png"
         id="image236-0"
         x="24.041201"
         y="86.973351"
         clip-path="url(#clipPath4607)"
         transform="translate(60.360042,17.081881)"
         inkscape:highlight-color="#dbdfe5"
         inkscape:svg-dpi="1" /><image
         width="74.877083"
         height="100.89445"
         preserveAspectRatio="none"
         style="image-rendering:optimizeQuality"
         xlink:href="images/image236-4.png"
         id="image236-4-6"
         x="109.30141"
         y="85.129349"
         clip-path="url(#clipPath433-1)"
         transform="translate(-88.529664,68.725591)"
         inkscape:export-filename="SC24-Logo-BlackLetters.png"
         inkscape:export-xdpi="96"
         inkscape:export-ydpi="96" /><g
         id="g4599"
         transform="translate(-1.588532,-1.6470898)"><path
           style="opacity:1;fill:#ffffff;fill-opacity:1;stroke:none;stroke-width:0;stroke-linejoin:bevel;stroke-dasharray:none;stroke-opacity:1"
           d="m 93.592596,189.56157 c -1.232863,-0.25713 -2.810253,-0.82178 -3.74214,-1.33955 -1.277773,-0.70996 -3.763589,-2.76264 -3.729939,-3.08002 0.007,-0.0658 0.885751,-0.8898 1.95282,-1.83101 l 1.940126,-1.71129 0.593101,0.55971 c 0.943001,0.88992 0.986486,0.92557 1.606026,1.31683 1.608489,1.01581 3.492648,1.42807 5.343448,1.16915 1.58073,-0.22113 2.613842,-0.72872 3.049782,-1.49842 0.42232,-0.74565 0.41239,-1.24183 -0.0355,-1.77414 -0.51327,-0.61 -1.435031,-0.88131 -4.45812,-1.31222 -3.54058,-0.50467 -4.413279,-0.72813 -6.102366,-1.56257 -0.767294,-0.37906 -1.933683,-1.51467 -2.359739,-2.29747 -0.814988,-1.49741 -0.851612,-3.8431 -0.08708,-5.57744 0.456187,-1.03486 2.10834,-2.63745 3.367074,-3.26607 2.127327,-1.06239 2.724166,-1.18657 5.685925,-1.183 2.843596,0.003 3.277756,0.0743 5.266416,0.86013 1.51524,0.59873 1.5037,0.55594 0.44196,1.63836 -0.5111,0.52105 -1.22757,1.41814 -1.59215,1.99355 l -0.66289,1.04618 -0.539101,-0.27388 c -2.092815,-1.06324 -5.048954,-0.93463 -6.416728,0.27916 -0.543724,0.48251 -0.600009,0.59605 -0.600009,1.21033 0,0.58041 0.06208,0.72755 0.431842,1.02348 0.570344,0.45647 1.503638,0.71437 3.598685,0.99442 0.950053,0.127 2.21002,0.32052 2.799924,0.43003 1.149757,0.21346 1.301427,0.19179 1.304677,-0.18644 0.006,-0.68114 0.97827,-2.84691 1.78134,-3.96744 1.64301,-2.2925 3.55531,-3.6753 6.42157,-4.64347 1.16439,-0.39332 1.34535,-0.41318 3.74263,-0.41074 2.67628,0.003 2.75052,0.0164 5.03526,0.92811 1.53431,0.61225 3.41571,2.07469 4.57935,3.55958 l 0.47306,0.60367 -2.02279,1.52478 c -2.04463,1.54125 -2.45093,1.79891 -2.45093,1.55426 0,-0.27555 -1.60549,-1.89683 -2.25571,-2.27788 -3.86355,-2.26419 -8.77161,-0.13632 -9.90949,4.29622 -0.9538,3.71552 1.63436,7.59706 5.53757,8.30485 1.94893,0.35341 4.234,-0.37652 5.72338,-1.82823 0.30799,-0.30019 0.68602,-0.71983 0.84007,-0.93252 l 0.2801,-0.38672 2.08724,1.51059 c 1.14798,0.83083 2.10816,1.56963 2.13373,1.64179 0.0847,0.23913 -2.33256,2.54107 -3.35728,3.19704 -1.59218,1.01923 -2.54169,1.39331 -4.47619,1.76349 -3.13267,0.59945 -6.46778,-0.0845 -9.221,-1.89103 -0.64557,-0.42358 -1.21766,-0.77016 -1.2713,-0.77016 -0.0537,0 -0.37367,0.22627 -0.71116,0.50282 -2.3903,1.95867 -6.521073,2.82198 -10.015467,2.09318 z"
           id="path4554" /><path
           style="opacity:1;fill:#ffffff;fill-opacity:1;stroke:none;stroke-width:0;stroke-linejoin:bevel;stroke-dasharray:none;stroke-opacity:1"
           d="m 124.82968,186.98191 v -2.43078 l 0.97165,-0.78219 c 1.27222,-1.02415 4.01136,-3.18948 6.07316,-4.80091 4.52938,-3.54001 5.03427,-4.08403 5.042,-5.4327 0.006,-0.97671 -0.23868,-1.5259 -0.90462,-2.03384 -1.89236,-1.44337 -4.97345,-0.82741 -6.46811,1.29308 -0.43305,0.61437 -0.49757,0.65287 -0.95164,0.56768 -0.2679,-0.0502 -0.59247,-0.14627 -0.72127,-0.21338 -0.37421,-0.19494 -1.14962,-0.5085 -2.49707,-1.00975 -1.43824,-0.53503 -1.42411,-0.44633 -0.29255,-1.83557 1.53619,-1.88604 3.01081,-2.92531 5.29043,-3.72857 1.07156,-0.37758 1.30662,-0.40591 3.38276,-0.40779 2.42459,-0.002 2.94092,0.10487 4.66549,0.96745 3.57067,1.78593 4.88912,6.26694 2.86673,9.74311 -0.66856,1.14916 -2.0245,2.39282 -5.36419,4.91999 -1.7862,1.35163 -3.26922,2.51673 -3.29561,2.58912 -0.0284,0.0778 1.84106,0.13161 4.57033,0.13161 h 4.61831 v 2.4471 2.44711 h -8.4929 -8.4929 z"
           id="path4556" /><path
           style="opacity:1;fill:#ffffff;fill-opacity:1;stroke:none;stroke-width:0;stroke-linejoin:bevel;stroke-dasharray:none;stroke-opacity:1"
           d="m 152.46759,186.89538 v -2.51731 l -5.25211,-0.0378 -5.25211,-0.0378 0.18364,-0.35987 c 0.101,-0.19793 0.33487,-0.71614 0.5197,-1.15158 0.18484,-0.43544 0.45219,-1.05082 0.59413,-1.3675 0.31877,-0.71123 0.62899,-1.42452 1.81554,-4.17448 0.51242,-1.18756 1.08953,-2.50106 1.28249,-2.91887 0.19295,-0.41781 0.35082,-0.78575 0.35082,-0.81765 0,-0.0319 0.19958,-0.49976 0.4435,-1.03969 0.77348,-1.71211 0.82532,-1.8296 1.54822,-3.50899 0.38996,-0.90594 0.79191,-1.8253 0.89321,-2.04303 l 0.18418,-0.39585 h 2.63993 c 1.45195,0 2.63992,0.0518 2.63992,0.11516 0,0.0633 -0.0542,0.17669 -0.12042,0.25191 -0.0662,0.0752 -0.26859,0.49301 -0.4497,0.92846 -0.1811,0.43544 -0.44588,1.05081 -0.5884,1.3675 -0.14252,0.31668 -0.43157,0.96444 -0.64234,1.43947 -0.70448,1.58775 -0.76483,1.72282 -1.21038,2.70906 -0.24393,0.53993 -0.4435,1.00572 -0.4435,1.0351 0,0.0294 -0.25911,0.61167 -0.57579,1.294 -0.31669,0.68233 -0.57579,1.26463 -0.57579,1.294 0,0.0294 -0.19433,0.47326 -0.43184,0.98641 -0.65518,1.41551 -0.67348,1.39025 1.00763,1.39025 h 1.43947 v -2.59105 -2.59106 h 2.51908 2.51908 v 2.59106 2.59105 h 1.51145 1.51145 v 2.51908 2.51908 h -1.51145 -1.51145 v 2.51908 2.51908 h -2.51908 -2.51908 z"
           id="path4558" /><path
           style="opacity:1;fill:#ffffff;fill-opacity:1;stroke:none;stroke-width:0;stroke-linejoin:bevel;stroke-dasharray:none;stroke-opacity:1"
           d="m 119.29524,203.35186 c 0.0544,-0.17139 0.41503,-1.02675 0.80141,-1.9008 0.38638,-0.87405 0.70251,-1.64069 0.70251,-1.70365 0,-0.063 -0.22672,-0.11446 -0.50382,-0.11446 -0.40785,0 -0.50382,-0.0548 -0.50382,-0.2879 0,-0.25747 0.096,-0.28789 0.90826,-0.28789 h 0.90825 l 0.76822,1.83533 c 0.42251,1.00943 0.85676,2.04585 0.96499,2.30316 0.19072,0.45343 0.18602,0.46783 -0.15295,0.46783 -0.25016,0 -0.40417,-0.12297 -0.54089,-0.43185 -0.18843,-0.42568 -0.20689,-0.43184 -1.29553,-0.43184 -1.08864,0 -1.1071,0.006 -1.29553,0.43184 -0.13326,0.30106 -0.29243,0.43185 -0.52558,0.43185 -0.2774,0 -0.31756,-0.0531 -0.23552,-0.31162 z m 2.79944,-1.39784 c 0,-0.0693 -0.17074,-0.50656 -0.37943,-0.97165 l -0.37944,-0.8456 -0.33845,0.71973 c -0.51554,1.09634 -0.47628,1.22356 0.37759,1.22356 0.39585,0 0.71973,-0.0567 0.71973,-0.12604 z"
           id="path4560" /><path
           style="opacity:1;fill:#ffffff;fill-opacity:1;stroke:none;stroke-width:0;stroke-linejoin:bevel;stroke-dasharray:none;stroke-opacity:1"
           d="m 115.39399,203.461 c -1.03066,-0.44893 -1.54732,-1.62492 -1.23195,-2.80407 0.37313,-1.39506 2.06874,-2.14907 3.40591,-1.51454 0.72839,0.34564 0.90894,0.61906 0.57167,0.86567 -0.23951,0.17514 -0.31161,0.16425 -0.57963,-0.0875 -0.22352,-0.20998 -0.5045,-0.28756 -1.04147,-0.28756 -0.62926,0 -0.7993,0.0639 -1.17834,0.44296 -0.76995,0.76995 -0.76975,1.78127 5.3e-4,2.51873 0.38155,0.36531 0.54585,0.42002 1.24069,0.4131 0.71506,-0.007 0.84517,-0.0575 1.21382,-0.4701 0.63279,-0.70822 0.55561,-0.88943 -0.37881,-0.88943 -0.74852,0 -0.79171,-0.0196 -0.79171,-0.35987 0,-0.35563 0.0144,-0.35986 1.22356,-0.35986 1.1924,0 1.22355,0.009 1.22355,0.34228 0,0.8492 -0.7588,1.96261 -1.53991,2.25959 -0.50144,0.19065 -1.62463,0.15421 -2.13789,-0.0693 z"
           id="path4562" /><path
           style="opacity:1;fill:#ffffff;fill-opacity:1;stroke:none;stroke-width:0;stroke-linejoin:bevel;stroke-dasharray:none;stroke-opacity:1"
           d="m 122.98643,197.11387 c 0.003,-0.23751 0.0352,-0.31725 0.0717,-0.17719 0.0365,0.14005 0.0341,0.33438 -0.005,0.43184 -0.0394,0.0975 -0.0693,-0.0171 -0.0664,-0.25465 z"
           id="path4564" /><path
           style="opacity:1;fill:#ffffff;fill-opacity:1;stroke:none;stroke-width:0;stroke-linejoin:bevel;stroke-dasharray:none;stroke-opacity:1"
           d="m 122.99176,197.04189 c 0,-0.27709 0.0296,-0.39045 0.0658,-0.2519 0.0362,0.13855 0.0362,0.36526 0,0.50381 -0.0362,0.13855 -0.0658,0.0252 -0.0658,-0.25191 z"
           id="path4566" /><path
           style="opacity:1;fill:#ffffff;fill-opacity:1;stroke:none;stroke-width:0;stroke-linejoin:bevel;stroke-dasharray:none;stroke-opacity:1"
           d="m 118.21913,196.88682 c -0.50973,-0.50972 -0.65511,-0.95173 -0.5421,-1.64815 0.11433,-0.70455 0.51102,-1.17632 1.2231,-1.45462 0.5901,-0.23062 0.64571,-0.22924 1.15157,0.0285 0.29235,0.14898 0.58012,0.29415 0.6395,0.32261 0.0594,0.0285 0.10796,-0.0508 0.10796,-0.17618 0,-0.13195 0.12122,-0.22791 0.28789,-0.22791 0.27254,0 0.2879,0.096 0.2879,1.79934 0,1.70338 -0.0153,1.79934 -0.2879,1.79934 -0.15994,0 -0.28789,-0.096 -0.28789,-0.21592 0,-0.26866 -0.13575,-0.2674 -0.49534,0.005 -0.15428,0.11668 -0.58451,0.21134 -0.96058,0.21134 -0.5687,0 -0.75427,-0.0731 -1.12411,-0.44297 z m 2.2267,-0.48615 c 0.47157,-0.47157 0.47402,-1.20177 0.006,-1.70707 -0.46202,-0.49852 -0.95761,-0.60748 -1.49623,-0.32895 -0.77902,0.40285 -0.90328,1.493 -0.24519,2.15109 0.37343,0.37342 1.30924,0.31138 1.73569,-0.11507 z"
           id="path4568" /><path
           style="opacity:1;fill:#ffffff;fill-opacity:1;stroke:none;stroke-width:0;stroke-linejoin:bevel;stroke-dasharray:none;stroke-opacity:1"
           d="m 116.46966,196.90902 c -0.39102,-0.39102 -0.42077,-0.49789 -0.42077,-1.51145 0,-0.99471 -0.0253,-1.09068 -0.28789,-1.09068 -0.19193,0 -0.2879,-0.096 -0.2879,-0.28789 0,-0.19193 0.096,-0.28789 0.2879,-0.28789 0.23116,0 0.28789,-0.096 0.28789,-0.48703 0,-0.36597 0.0716,-0.50574 0.28789,-0.56232 0.25162,-0.0658 0.2879,-0.004 0.2879,0.48703 0,0.46635 0.0491,0.56232 0.2879,0.56232 0.19193,0 0.28789,0.096 0.28789,0.28789 0,0.19193 -0.096,0.28789 -0.28789,0.28789 -0.26067,0 -0.2879,0.096 -0.2879,1.01451 0,0.87864 0.0453,1.05696 0.33797,1.33151 0.32634,0.3061 0.36512,0.67688 0.0708,0.67688 -0.0787,0 -0.33237,-0.18935 -0.56379,-0.42077 z"
           id="path4570" /><path
           style="opacity:1;fill:#ffffff;fill-opacity:1;stroke:none;stroke-width:0;stroke-linejoin:bevel;stroke-dasharray:none;stroke-opacity:1"
           d="m 122.32951,197.29215 v -0.59536 h 0.32827 0.32827 v 0.36579 c 0,0.333 -0.0921,0.55337 -0.23138,0.55337 -0.0241,0 -0.1296,0.0611 -0.23447,0.13578 l -0.19069,0.13578 z"
           id="path4572" /><path
           style="opacity:1;fill:#ffffff;fill-opacity:1;stroke:none;stroke-width:0;stroke-linejoin:bevel;stroke-dasharray:none;stroke-opacity:1"
           d="m 111.82485,195.51502 v -1.83832 h 0.32827 c 0.31951,0 0.32827,0.005 0.32827,0.19309 0,0.25236 0.11044,0.31365 0.26542,0.14729 0.0682,-0.0732 0.19154,-0.15422 0.274,-0.17996 0.0825,-0.0257 0.17103,-0.0798 0.19679,-0.12003 0.0268,-0.0419 0.22364,-0.0716 0.45958,-0.0694 0.60356,0.006 0.97444,0.24092 1.23557,0.78404 0.11161,0.23213 0.12643,0.41697 0.12771,1.59212 l 0.001,1.32949 h -0.29544 -0.29544 v -1.15544 c 0,-1.26096 -0.0473,-1.47456 -0.38584,-1.74132 -0.24528,-0.19328 -1.02269,-0.1592 -1.23608,0.0542 -0.31688,0.31688 -0.34771,0.46673 -0.34771,1.69036 v 1.1522 h -0.32827 -0.32827 z"
           id="path4574" /><path
           style="opacity:1;fill:#ffffff;fill-opacity:1;stroke:none;stroke-width:0;stroke-linejoin:bevel;stroke-dasharray:none;stroke-opacity:1"
           d="m 108.42725,197.37265 c -0.0812,-0.0156 -0.14773,-0.0487 -0.14773,-0.0735 0,-0.0248 -0.0931,-0.0863 -0.20683,-0.13662 -0.22297,-0.0987 -0.43457,-0.28567 -0.56284,-0.49734 -0.16214,-0.26755 -0.28079,-0.55847 -0.28079,-0.68847 0,-0.0734 -0.0296,-0.13342 -0.0657,-0.13342 -0.0361,0 -0.0656,-0.13295 -0.0656,-0.29544 0,-0.1625 0.0258,-0.29545 0.0573,-0.29545 0.0315,0 0.0758,-0.11608 0.0985,-0.25796 0.0227,-0.14187 0.0855,-0.30226 0.1397,-0.35641 0.0541,-0.0541 0.0984,-0.1241 0.0984,-0.15547 0,-0.11663 0.50338,-0.53637 0.82068,-0.68431 0.44276,-0.20643 1.00285,-0.20741 1.42211,-0.002 0.1683,0.0823 0.32248,0.19253 0.34263,0.24503 0.0202,0.0525 0.0819,0.0955 0.13717,0.0955 0.0711,0 0.10054,-0.0672 0.10054,-0.22979 v -0.22979 h 0.3611 0.3611 v 1.83831 1.83832 h -0.3611 -0.3611 v -0.22979 c 0,-0.24361 -0.16298,-0.32908 -0.2408,-0.12628 -0.0219,0.0569 -0.10217,0.13206 -0.17849,0.16696 -0.0763,0.0349 -0.21263,0.10605 -0.3029,0.15814 -0.1563,0.0902 -0.81152,0.11844 -1.16536,0.0503 z m 1.21151,-0.69227 c 0.25381,-0.11343 0.54473,-0.42144 0.54473,-0.57674 0,-0.071 0.0296,-0.12904 0.0657,-0.12904 0.0375,0 0.0657,-0.19697 0.0657,-0.45958 0,-0.26262 -0.0281,-0.45958 -0.0657,-0.45958 -0.0361,0 -0.0657,-0.0478 -0.0657,-0.10617 0,-0.0584 -0.11601,-0.21875 -0.2578,-0.35635 -0.28858,-0.28005 -0.64564,-0.3728 -1.12404,-0.29198 -0.32057,0.0542 -0.8504,0.51605 -0.8504,0.74136 0,0.0752 -0.0295,0.15496 -0.0657,0.17727 -0.0806,0.0498 -0.0876,0.53672 -0.008,0.58565 0.0314,0.0195 0.0737,0.11806 0.0939,0.21918 0.0455,0.22736 0.39681,0.60453 0.62837,0.67458 0.27049,0.0818 0.83732,0.0717 1.03933,-0.0186 z"
           id="path4576" /><path
           style="opacity:1;fill:#ffffff;fill-opacity:1;stroke:none;stroke-width:0;stroke-linejoin:bevel;stroke-dasharray:none;stroke-opacity:1"
           d="m 106.57252,197.2921 c 0,-0.0337 -0.0613,-0.0807 -0.13631,-0.10449 -0.18939,-0.0601 -0.57095,-0.44297 -0.65082,-0.65305 -0.0391,-0.1028 -0.0664,-0.94221 -0.0664,-2.04145 v -1.86688 h 0.29545 0.29544 v 1.67508 c 0,0.92129 0.0261,1.72637 0.0579,1.78907 0.0319,0.0627 0.0836,0.20003 0.1149,0.30517 0.0353,0.11854 0.13764,0.23077 0.26936,0.29544 0.25437,0.12488 0.311,0.25987 0.20584,0.49066 -0.0519,0.11393 -0.12989,0.17168 -0.23182,0.17168 -0.0845,0 -0.15359,-0.0275 -0.15359,-0.0612 z"
           id="path4578" /><path
           style="opacity:1;fill:#ffffff;fill-opacity:1;stroke:none;stroke-width:0;stroke-linejoin:bevel;stroke-dasharray:none;stroke-opacity:1"
           d="m 104.8491,197.36786 c -0.0632,-0.0133 -0.1149,-0.0443 -0.1149,-0.069 0,-0.0247 -0.0944,-0.0866 -0.20969,-0.13763 -0.27244,-0.12059 -0.49322,-0.37389 -0.57651,-0.66143 -0.0366,-0.12638 -0.0667,-0.66557 -0.0669,-1.19819 l -2.6e-4,-0.9684 h -0.22979 -0.22979 v -0.32827 -0.32827 h 0.22979 0.22979 v -0.43144 c 0,-0.50036 0.0548,-0.5795 0.44401,-0.64175 l 0.27819,-0.0445 v 0.55883 0.55884 h 0.29544 0.29544 v 0.32827 0.32827 h -0.29544 -0.29544 l 0.002,1.03406 c 0.002,1.12114 0.0152,1.16778 0.37542,1.35391 0.11736,0.0606 0.21319,0.16121 0.21295,0.22347 -7.9e-4,0.18355 -0.21734,0.44985 -0.34425,0.42318 z"
           id="path4580" /><path
           style="opacity:1;fill:#ffffff;fill-opacity:1;stroke:none;stroke-width:0;stroke-linejoin:bevel;stroke-dasharray:none;stroke-opacity:1"
           d="m 99.02229,197.28361 c 0,-0.0631 0.0902,-0.27244 0.466913,-1.08354 0.06819,-0.14681 0.123976,-0.31669 0.123976,-0.37751 0,-0.0608 0.02954,-0.11058 0.06565,-0.11058 0.03611,0 0.06565,-0.0299 0.06565,-0.0664 0,-0.0365 0.0568,-0.19161 0.126223,-0.34468 0.290468,-0.64047 0.530318,-1.22415 0.530318,-1.29055 0,-0.0391 0.0249,-0.0711 0.0553,-0.0711 0.0536,0 0.20735,-0.43167 0.20735,-0.58209 0,-0.0493 -0.17747,-0.0744 -0.52523,-0.0744 h -0.525228 v -0.32827 -0.32828 h 0.941468 0.94148 l 0.0867,0.26262 c 0.0477,0.14444 0.1059,0.26262 0.12941,0.26262 0.0235,0 0.0806,0.14772 0.12686,0.32827 0.0463,0.18055 0.1045,0.32827 0.12939,0.32827 0.0249,0 0.0845,0.13295 0.13249,0.29544 0.048,0.1625 0.10982,0.29545 0.13743,0.29545 0.0276,0 0.068,0.0891 0.0898,0.19799 0.0218,0.1089 0.11649,0.36741 0.21047,0.57447 0.094,0.20707 0.19564,0.43557 0.22593,0.50779 0.0303,0.0722 0.1313,0.29936 0.22449,0.50476 0.0932,0.20539 0.17043,0.39743 0.17166,0.42675 10e-4,0.0293 0.0593,0.17148 0.12908,0.31592 0.19503,0.40377 0.18089,0.42675 -0.26262,0.42675 -0.27018,0 -0.39462,-0.0258 -0.39615,-0.0821 -0.001,-0.0451 -0.0593,-0.20024 -0.12908,-0.34468 -0.0698,-0.14444 -0.12785,-0.31432 -0.12908,-0.37751 -0.002,-0.10496 -0.10156,-0.11489 -1.15117,-0.11489 -1.05414,0 -1.14895,0.01 -1.14895,0.11586 0,0.0637 -0.0591,0.22611 -0.131309,0.36086 -0.07222,0.13475 -0.131308,0.28942 -0.131308,0.34371 0,0.0769 -0.08712,0.0987 -0.393925,0.0987 -0.234161,0 -0.393925,-0.0283 -0.393925,-0.0697 z m 2.95373,-1.58805 c -0.003,-0.0596 -0.19646,-0.64669 -0.24671,-0.74703 -0.12879,-0.25718 -0.27681,-0.58925 -0.3401,-0.76301 -0.0738,-0.20261 -0.25175,-0.24091 -0.30506,-0.0657 -0.0192,0.0632 -0.0759,0.20352 -0.12591,0.31185 -0.12949,0.28038 -0.4019,0.95806 -0.45524,1.13254 -0.045,0.14728 -0.0429,0.14772 0.71428,0.14772 0.4177,0 0.75913,-0.007 0.75874,-0.0164 z"
           id="path4582" /></g></g></g></svg>
